<?xml version="1.0" encoding="UTF-8"?>
<mxfile host="Electron" modified="2025-06-20T14:19:00.651Z" agent="5.0 (Macintosh; Intel Mac OS X 10_15_7) AppleWebKit/537.36 (KHTML, like Gecko) draw.io/20.8.16 Chrome/106.0.5249.199 Electron/21.4.0 Safari/537.36" version="20.8.16" etag="generated" type="device"><diagram name="Page-1" id="architecture_diagram"><mxGraphModel dx="1420" dy="893" grid="1" gridSize="10" guides="1" tooltips="1" connect="1" arrows="1" fold="1" page="1" pageScale="1" pageWidth="850" pageHeight="1100" math="0" shadow="0"><root><mxCell id="0" /><mxCell id="1" parent="0" /><object placeholders="1" c4Name="X5" label="&lt;font style=&quot;font-size: 16px&quot;&gt;&lt;b&gt;&lt;div style=&quot;text-align: left&quot;&gt;%c4Name% x %c4Instances%&lt;/div&gt;&lt;/b&gt;&lt;/font&gt;&lt;div style=&quot;text-align: left&quot;&gt;[&lt;span style=&quot;background-color: initial;&quot;&gt;%c4Specifications%]&lt;/span&gt;&lt;/div&gt;" c4Instances="n" c4Specifications="Type&#10;Specifications" id="37"><mxCell style="rounded=1;fontSize=11;whiteSpace=wrap;html=1;dashed=1;arcSize=20;fillColor=none;strokeColor=#06315C;fontColor=#000;labelBackgroundColor=none;align=left;verticalAlign=bottom;labelBorderColor=none;spacingTop=0;spacing=10;dashPattern=8 4;metaEdit=1;rotatable=0;perimeter=rectanglePerimeter;noLabel=0;labelPadding=0;allowArrows=0;;connectable=1;expand=0;recursiveResize=0;editable=1;pointerEvents=0;absoluteArcSize=1;points=[[0.25,0,0],[0.5,0,0],[0.75,0,0],[1,0.25,0],[1,0.5,0],[1,0.75,0],[0.75,1,0],[0.5,1,0],[0.25,1,0],[0,0.75,0],[0,0.5,0],[0,0.25,0]];strokeWidth=2;container=1;imageAlign=right;imageVerticalAlign=bottom;direction=east;collapsible=0;" vertex="1" parent="None"><mxGeometry x="0" y="0" width="990" height="890" as="geometry" /></mxCell></object><object placeholders="1" c4Name="Nubes" label="&lt;font style=&quot;font-size: 16px&quot;&gt;&lt;b&gt;&lt;div style=&quot;text-align: left&quot;&gt;%c4Name% x %c4Instances%&lt;/div&gt;&lt;/b&gt;&lt;/font&gt;&lt;div style=&quot;text-align: left&quot;&gt;[&lt;span style=&quot;background-color: initial;&quot;&gt;%c4Specifications%]&lt;/span&gt;&lt;/div&gt;" c4Instances="n" c4Specifications="Type&#10;Specifications" id="38"><mxCell style="rounded=1;fontSize=11;whiteSpace=wrap;html=1;dashed=1;arcSize=20;fillColor=none;strokeColor=#06315C;fontColor=#000;labelBackgroundColor=none;align=left;verticalAlign=bottom;labelBorderColor=none;spacingTop=0;spacing=10;dashPattern=8 4;metaEdit=1;rotatable=0;perimeter=rectanglePerimeter;noLabel=0;labelPadding=0;allowArrows=0;;connectable=1;expand=0;recursiveResize=0;editable=1;pointerEvents=0;absoluteArcSize=1;points=[[0.25,0,0],[0.5,0,0],[0.75,0,0],[1,0.25,0],[1,0.5,0],[1,0.75,0],[0.75,1,0],[0.5,1,0],[0.25,1,0],[0,0.75,0],[0,0.5,0],[0,0.25,0]];strokeWidth=2;container=1;imageAlign=right;imageVerticalAlign=bottom;direction=east;collapsible=0;" vertex="1" parent="37"><mxGeometry x="30" y="30" width="930" height="780" as="geometry" /></mxCell></object><object placeholders="1" c4Name="Intranet.Salt" label="&lt;font style=&quot;font-size: 16px&quot;&gt;&lt;b&gt;&lt;div style=&quot;text-align: left&quot;&gt;%c4Name% x %c4Instances%&lt;/div&gt;&lt;/b&gt;&lt;/font&gt;&lt;div style=&quot;text-align: left&quot;&gt;[&lt;span style=&quot;background-color: initial;&quot;&gt;%c4Specifications%]&lt;/span&gt;&lt;/div&gt;" c4Instances="n" c4Specifications="Type&#10;Specifications" id="39"><mxCell style="rounded=1;fontSize=11;whiteSpace=wrap;html=1;dashed=1;arcSize=20;fillColor=none;strokeColor=#06315C;fontColor=#000;labelBackgroundColor=none;align=left;verticalAlign=bottom;labelBorderColor=none;spacingTop=0;spacing=10;dashPattern=8 4;metaEdit=1;rotatable=0;perimeter=rectanglePerimeter;noLabel=0;labelPadding=0;allowArrows=0;;connectable=1;expand=0;recursiveResize=0;editable=1;pointerEvents=0;absoluteArcSize=1;points=[[0.25,0,0],[0.5,0,0],[0.75,0,0],[1,0.25,0],[1,0.5,0],[1,0.75,0],[0.75,1,0],[0.5,1,0],[0.25,1,0],[0,0.75,0],[0,0.5,0],[0,0.25,0]];strokeWidth=2;container=1;imageAlign=right;imageVerticalAlign=bottom;direction=east;collapsible=0;" vertex="1" parent="38"><mxGeometry x="30" y="30" width="870" height="670" as="geometry" /></mxCell></object><object placeholders="1" c4Name="x5-ibp-prod" label="&lt;font style=&quot;font-size: 16px&quot;&gt;&lt;b&gt;&lt;div style=&quot;text-align: left&quot;&gt;%c4Name% x %c4Instances%&lt;/div&gt;&lt;/b&gt;&lt;/font&gt;&lt;div style=&quot;text-align: left&quot;&gt;[&lt;span style=&quot;background-color: initial;&quot;&gt;%c4Specifications%]&lt;/span&gt;&lt;/div&gt;" c4Instances="n" c4Specifications="Type&#10;Specifications" id="40"><mxCell style="rounded=1;fontSize=11;whiteSpace=wrap;html=1;dashed=1;arcSize=20;fillColor=none;strokeColor=#06315C;fontColor=#000;labelBackgroundColor=none;align=left;verticalAlign=bottom;labelBorderColor=none;spacingTop=0;spacing=10;dashPattern=8 4;metaEdit=1;rotatable=0;perimeter=rectanglePerimeter;noLabel=0;labelPadding=0;allowArrows=0;;connectable=1;expand=0;recursiveResize=0;editable=1;pointerEvents=0;absoluteArcSize=1;points=[[0.25,0,0],[0.5,0,0],[0.75,0,0],[1,0.25,0],[1,0.5,0],[1,0.75,0],[0.75,1,0],[0.5,1,0],[0.25,1,0],[0,0.75,0],[0,0.5,0],[0,0.25,0]];strokeWidth=2;container=1;imageAlign=right;imageVerticalAlign=bottom;direction=east;collapsible=0;" vertex="1" parent="39"><mxGeometry x="30" y="30" width="810" height="560" as="geometry" /></mxCell></object><object placeholders="1" c4Name="ibp-prod-1" label="&lt;font style=&quot;font-size: 16px&quot;&gt;&lt;b&gt;&lt;div style=&quot;text-align: left&quot;&gt;%c4Name% x %c4Instances%&lt;/div&gt;&lt;/b&gt;&lt;/font&gt;&lt;div style=&quot;text-align: left&quot;&gt;[&lt;span style=&quot;background-color: initial;&quot;&gt;%c4Specifications%]&lt;/span&gt;&lt;/div&gt;" c4Instances="n" c4Specifications="Type&#10;Specifications" id="41"><mxCell style="rounded=1;fontSize=11;whiteSpace=wrap;html=1;dashed=1;arcSize=20;fillColor=none;strokeColor=#06315C;fontColor=#000;labelBackgroundColor=none;align=left;verticalAlign=bottom;labelBorderColor=none;spacingTop=0;spacing=10;dashPattern=8 4;metaEdit=1;rotatable=0;perimeter=rectanglePerimeter;noLabel=0;labelPadding=0;allowArrows=0;;connectable=1;expand=0;recursiveResize=0;editable=1;pointerEvents=0;absoluteArcSize=1;points=[[0.25,0,0],[0.5,0,0],[0.75,0,0],[1,0.25,0],[1,0.5,0],[1,0.75,0],[0.75,1,0],[0.5,1,0],[0.25,1,0],[0,0.75,0],[0,0.5,0],[0,0.25,0]];strokeWidth=2;container=1;imageAlign=right;imageVerticalAlign=bottom;direction=east;collapsible=0;" vertex="1" parent="40"><mxGeometry x="30" y="30" width="750" height="450" as="geometry" /></mxCell></object><object placeholders="1" c4Name="ibp-tsx-prod-main" label="&lt;font style=&quot;font-size: 16px&quot;&gt;&lt;b&gt;&lt;div style=&quot;text-align: left&quot;&gt;%c4Name% x %c4Instances%&lt;/div&gt;&lt;/b&gt;&lt;/font&gt;&lt;div style=&quot;text-align: left&quot;&gt;[&lt;span style=&quot;background-color: initial;&quot;&gt;%c4Specifications%]&lt;/span&gt;&lt;/div&gt;" c4Instances="n" c4Specifications="Type&#10;Specifications" id="42"><mxCell style="rounded=1;fontSize=11;whiteSpace=wrap;html=1;dashed=1;arcSize=20;fillColor=none;strokeColor=#06315C;fontColor=#000;labelBackgroundColor=none;align=left;verticalAlign=bottom;labelBorderColor=none;spacingTop=0;spacing=10;dashPattern=8 4;metaEdit=1;rotatable=0;perimeter=rectanglePerimeter;noLabel=0;labelPadding=0;allowArrows=0;;connectable=1;expand=0;recursiveResize=0;editable=1;pointerEvents=0;absoluteArcSize=1;points=[[0.25,0,0],[0.5,0,0],[0.75,0,0],[1,0.25,0],[1,0.5,0],[1,0.75,0],[0.75,1,0],[0.5,1,0],[0.25,1,0],[0,0.75,0],[0,0.5,0],[0,0.25,0]];strokeWidth=2;container=1;imageAlign=right;imageVerticalAlign=bottom;direction=east;collapsible=0;" vertex="1" parent="41"><mxGeometry x="30" y="30" width="690" height="340" as="geometry" /></mxCell></object><object placeholders="1" c4Name="frontend-main" label="&lt;font style=&quot;font-size: 16px&quot;&gt;&lt;b&gt;&lt;div style=&quot;text-align: left&quot;&gt;%c4Name% x %c4Instances%&lt;/div&gt;&lt;/b&gt;&lt;/font&gt;&lt;div style=&quot;text-align: left&quot;&gt;[&lt;span style=&quot;background-color: initial;&quot;&gt;%c4Specifications%]&lt;/span&gt;&lt;/div&gt;" c4Instances="n" c4Specifications="Type&#10;Specifications" id="43"><mxCell style="rounded=1;fontSize=11;whiteSpace=wrap;html=1;dashed=1;arcSize=20;fillColor=none;strokeColor=#06315C;fontColor=#000;labelBackgroundColor=none;align=left;verticalAlign=bottom;labelBorderColor=none;spacingTop=0;spacing=10;dashPattern=8 4;metaEdit=1;rotatable=0;perimeter=rectanglePerimeter;noLabel=0;labelPadding=0;allowArrows=0;;connectable=1;expand=0;recursiveResize=0;editable=1;pointerEvents=0;absoluteArcSize=1;points=[[0.25,0,0],[0.5,0,0],[0.75,0,0],[1,0.25,0],[1,0.5,0],[1,0.75,0],[0.75,1,0],[0.5,1,0],[0.25,1,0],[0,0.75,0],[0,0.5,0],[0,0.25,0]];strokeWidth=2;container=1;imageAlign=right;imageVerticalAlign=bottom;direction=east;collapsible=0;" vertex="1" parent="42"><mxGeometry x="30" y="30" width="300" height="230" as="geometry" /></mxCell></object><object placeholders="1" c4Name="Frontend - ТСХ" c4Type="Web Application Frontend" c4Technology="ReactJS" c4Description="Фронтенд для работы пользователей" label="&lt;font style=&quot;font-size: 16px&quot;&gt;&lt;b&gt;%c4Name%&lt;/b&gt;&lt;/font&gt;&lt;div&gt;[%c4Type%: %c4Technology%]&lt;/div&gt;&lt;br&gt;&lt;div&gt;&lt;font style=&quot;font-size: 11px&quot;&gt;%c4Description%&lt;/font&gt;&lt;/div&gt;" id="44"><mxCell style="rounded=1;whiteSpace=wrap;html=1;labelBackgroundColor=none;fillColor=#23A2D9;fontColor=#ffffff;align=center;arcSize=6;strokeColor=#0E7DAD;metaEdit=1;resizable=1;points=[[0.25,0,0],[0.5,0,0],[0.75,0,0],[1,0.25,0],[1,0.5,0],[1,0.75,0],[0.75,1,0],[0.5,1,0],[0.25,1,0],[0,0.75,0],[0,0.5,0],[0,0.25,0]];fontSize=14;strokeWidth=3;allowArrows=0;rotatable=0;" vertex="1" parent="43"><mxGeometry x="30" y="30" width="240" height="120" as="geometry" /></mxCell></object><object placeholders="1" c4Name="backend-main" label="&lt;font style=&quot;font-size: 16px&quot;&gt;&lt;b&gt;&lt;div style=&quot;text-align: left&quot;&gt;%c4Name% x %c4Instances%&lt;/div&gt;&lt;/b&gt;&lt;/font&gt;&lt;div style=&quot;text-align: left&quot;&gt;[&lt;span style=&quot;background-color: initial;&quot;&gt;%c4Specifications%]&lt;/span&gt;&lt;/div&gt;" c4Instances="n" c4Specifications="Type&#10;Specifications" id="45"><mxCell style="rounded=1;fontSize=11;whiteSpace=wrap;html=1;dashed=1;arcSize=20;fillColor=none;strokeColor=#06315C;fontColor=#000;labelBackgroundColor=none;align=left;verticalAlign=bottom;labelBorderColor=none;spacingTop=0;spacing=10;dashPattern=8 4;metaEdit=1;rotatable=0;perimeter=rectanglePerimeter;noLabel=0;labelPadding=0;allowArrows=0;;connectable=1;expand=0;recursiveResize=0;editable=1;pointerEvents=0;absoluteArcSize=1;points=[[0.25,0,0],[0.5,0,0],[0.75,0,0],[1,0.25,0],[1,0.5,0],[1,0.75,0],[0.75,1,0],[0.5,1,0],[0.25,1,0],[0,0.75,0],[0,0.5,0],[0,0.25,0]];strokeWidth=2;container=1;imageAlign=right;imageVerticalAlign=bottom;direction=east;collapsible=0;" vertex="1" parent="42"><mxGeometry x="360" y="30" width="300" height="230" as="geometry" /></mxCell></object><object placeholders="1" c4Name="Backend - ТСХ" c4Type="Service" c4Technology="Django" c4Description="Ручная загрузка файлов" label="&lt;font style=&quot;font-size: 16px&quot;&gt;&lt;b&gt;%c4Name%&lt;/b&gt;&lt;/font&gt;&lt;div&gt;[%c4Type%: %c4Technology%]&lt;/div&gt;&lt;br&gt;&lt;div&gt;&lt;font style=&quot;font-size: 11px&quot;&gt;%c4Description%&lt;/font&gt;&lt;/div&gt;" id="46"><mxCell style="rounded=1;whiteSpace=wrap;html=1;labelBackgroundColor=none;fillColor=#23A2D9;fontColor=#ffffff;align=center;arcSize=6;strokeColor=#0E7DAD;metaEdit=1;resizable=1;points=[[0.25,0,0],[0.5,0,0],[0.75,0,0],[1,0.25,0],[1,0.5,0],[1,0.75,0],[0.75,1,0],[0.5,1,0],[0.25,1,0],[0,0.75,0],[0,0.5,0],[0,0.25,0]];fontSize=14;strokeWidth=3;allowArrows=0;rotatable=0;" vertex="1" parent="45"><mxGeometry x="30" y="30" width="240" height="120" as="geometry" /></mxCell></object></root></mxGraphModel></diagram></mxfile>